<svg width="74" height="72" viewBox="0 0 74 72" fill="none" xmlns="http://www.w3.org/2000/svg">
<g clip-path="url(#clip0_1_165)">
<path d="M37 71.027C56.8823 71.027 73 55.3449 73 36C73 16.6551 56.8823 0.972977 37 0.972977C17.1178 0.972977 1 16.6551 1 36C1 55.3449 17.1178 71.027 37 71.027Z" stroke="#62A5AE" stroke-width="3" stroke-miterlimit="10"/>
<path d="M50.6667 22.0541C50.6667 18.8108 50.6667 15.5676 50.6667 12.3243C49.8 12 44.8667 10.0541 39.3333 12.3243C33.5333 14.7243 31.6 19.9135 31.3333 20.7568C31.1333 23.8054 30.8667 26.7892 30.6667 29.8378C28.2 29.8378 25.7333 29.8378 23.3333 29.8378C23.3333 33.2757 23.3333 36.7784 23.3333 40.2162C26 40.2162 28.6667 40.2162 31.3333 40.2162C31.3333 47.5459 31.3333 54.9405 31.3333 62.2703C34.6667 62.2703 38 62.2703 41.3333 62.2703C41.3333 54.9405 41.3333 47.5459 41.3333 40.2162C44.2 40.2162 47.1333 40.2162 50 40.2162C50 36.973 50 33.7297 50 30.4865C47.3333 30.4865 44.6667 30.4865 42 30.4865C42 29.5135 41.9333 28.2162 42 26.5946C42.0667 23.6108 42.2667 23.0919 42.6667 22.7027C43.0667 22.3135 43.6 22.1189 46.6667 22.0541C48.3333 21.9892 49.6667 22.0541 50.6667 22.0541Z" fill="#62A5AE"/>
</g>
<defs>
<clipPath id="clip0_1_165">
<rect width="74" height="72" fill="white"/>
</clipPath>
</defs>
</svg>
