<svg width="72" height="72" viewBox="0 0 72 72" fill="none" xmlns="http://www.w3.org/2000/svg">
<g clip-path="url(#clip0_1_160)">
<path d="M36 71.027C55.3449 71.027 71.027 55.3449 71.027 36C71.027 16.6551 55.3449 0.972977 36 0.972977C16.6551 0.972977 0.972977 16.6551 0.972977 36C0.972977 55.3449 16.6551 71.027 36 71.027Z" stroke="#62A5AE" stroke-width="3" stroke-miterlimit="10"/>
<path d="M15.2432 24.973C15.373 23.8054 15.827 21.0811 17.8378 18.4865C20.4324 15.1784 23.8703 14.2054 24.973 13.9459C28.2162 13.9459 31.4595 13.9459 34.7027 13.9459C38.7892 13.9459 42.9405 13.9459 47.027 13.9459C48.0649 14.1405 51.4378 14.8541 54.1622 17.8378C56.7568 20.6919 57.2757 23.8703 57.4054 24.973C57.4054 32.5622 57.4054 40.0865 57.4054 47.6757C57.4054 48.2595 57.1459 51.6973 54.1622 54.1622C51.1135 56.6919 47.5459 56.173 47.027 56.1081C39.6973 56.1081 32.3027 56.1081 24.973 56.1081C24.1946 56.1081 21.0811 55.9135 18.4865 53.5135C15.4378 50.7243 15.2432 47.027 15.2432 46.3784C15.2432 39.2432 15.2432 32.1081 15.2432 24.973Z" stroke="#62A5AE" stroke-width="3" stroke-miterlimit="10"/>
<path d="M36 25.6216C30.227 25.8162 25.7514 31.0054 26.2703 36.6486C26.7892 41.8378 31.3297 45.9243 36.6487 45.7297C42.0973 45.5351 46.573 40.9297 46.3784 35.3513C46.1838 29.773 41.4487 25.427 36 25.6216Z" fill="#62A5AE" stroke="#62A5AE" stroke-width="3" stroke-miterlimit="10"/>
<path d="M48.3243 25.6216C49.399 25.6216 50.2703 24.7504 50.2703 23.6757C50.2703 22.601 49.399 21.7297 48.3243 21.7297C47.2496 21.7297 46.3784 22.601 46.3784 23.6757C46.3784 24.7504 47.2496 25.6216 48.3243 25.6216Z" fill="#62A5AE"/>
</g>
<defs>
<clipPath id="clip0_1_160">
<rect width="72" height="72" fill="white"/>
</clipPath>
</defs>
</svg>
