<svg width="70" height="70" viewBox="0 0 70 70" fill="none" xmlns="http://www.w3.org/2000/svg">
<g clip-path="url(#clip0_1_168)">
<path d="M35 69.0541C53.8075 69.0541 69.054 53.8075 69.054 35C69.054 16.1925 53.8075 0.945946 35 0.945946C16.1925 0.945946 0.945946 16.1925 0.945946 35C0.945946 53.8075 16.1925 69.0541 35 69.0541Z" stroke="#62A5AE" stroke-width="3" stroke-miterlimit="10"/>
<path d="M31.5946 42C31.4685 36.955 31.3423 31.9099 31.2162 26.8649C35.1261 29.5135 39.036 32.1622 42.9459 34.8108C39.1622 37.2072 35.3784 39.6036 31.5946 42Z" fill="#62A5AE" stroke="#62A5AE" stroke-width="1.7965" stroke-miterlimit="10"/>
<path d="M12.6757 46.9189C12.5495 39.7297 12.4234 32.5405 12.2973 25.4144C12.2342 25.2252 11.7928 22.5135 13.8108 20.4955C15.6396 18.6667 18.036 18.9189 18.3514 18.982C29.5766 18.8559 40.7387 18.7297 51.964 18.6036C52.5946 18.6667 54.2342 18.8559 55.7478 20.1171C58.0811 22.0721 58.018 24.973 58.018 25.4144C58.018 31.8469 58.018 38.2793 58.018 44.6487C58.018 45.027 58.018 47.4234 56.1261 49.1892C53.9189 51.2072 51.1442 50.7658 50.8288 50.7027C39.6036 50.8288 28.4414 50.955 17.2162 51.0811C16.9009 51.0811 15.1351 51.018 13.8108 49.5676C12.9279 48.5586 12.7387 47.3604 12.6757 46.9189Z" stroke="#62A5AE" stroke-width="3" stroke-miterlimit="10"/>
</g>
<defs>
<clipPath id="clip0_1_168">
<rect width="70" height="70" fill="white"/>
</clipPath>
</defs>
</svg>
